<svg xmlns="http://www.w3.org/2000/svg" width="24" height="24" viewBox="0 0 24 24"><defs/><g fill="none" fill-rule="evenodd"><path d="M23.52 12.272c0-.851-.076-1.67-.218-2.455H12v4.64h6.46a5.522 5.522 0 0 1-2.396 3.624v3.01h3.878c2.27-2.09 3.578-5.168 3.578-8.819z" fill="#4285F4"/><path d="M12 24c3.24 0 5.956-1.073 7.941-2.91l-3.878-3.01c-1.076.72-2.457 1.148-4.063 1.148-3.126 0-5.778-2.112-6.726-4.946H1.27v3.11A12 12 0 0 0 12 24z" fill="#34A853"/><path d="M5.274 14.282A7.214 7.214 0 0 1 4.88 12c0-.79.136-1.558.394-2.282V6.608H1.27A12 12 0 0 0 0 12c0 1.904.455 3.703 1.27 5.392l4.004-3.11z" fill="#FBBC05"/><path d="M12 4.75c1.763 0 3.35.606 4.6 1.792l3.45-3.45C17.952 1.17 15.236 0 12 0 7.34 0 3.33 2.69 1.27 6.608l4.004 3.11C6.222 6.884 8.874 4.75 12 4.75z" fill="#EA4335"/></g></svg>
